{
  "loops": [
    {
      "length_beats": 4,
      "events": [
        {
          "note": 36,
          "time_ticks_press": 0,
          "velocity": 99,
          "time_ticks_release": 12
        },
        {
          "note": 42,
          "time_ticks_press": 0,
          "velocity": 99,
          "time_ticks_release": 4
        },
        {
          "note": 42,
          "time_ticks_press": 12,
          "velocity": 99,
          "time_ticks_release": 16
        },
        {
          "note": 42,
          "time_ticks_press": 24,
          "velocity": 99,
          "time_ticks_release": 28
        },
        {
          "note": 38,
          "time_ticks_press": 24,
          "velocity": 99,
          "time_ticks_release": 28
        },
        {
          "note": 42,
          "time_ticks_press": 36,
          "velocity": 99,
          "time_ticks_release": 40
        },
        {
          "note": 36,
          "time_ticks_press": 42,
          "velocity": 99,
          "time_ticks_release": 46
        },
        {
          "note": 42,
          "time_ticks_press": 48,
          "velocity": 99,
          "time_ticks_release": 52
        },
        {
          "note": 36,
          "time_ticks_press": 54,
          "velocity": 99,
          "time_ticks_release": 58
        },
        {
          "note": 36,
          "time_ticks_press": 60,
          "velocity": 99,
          "time_ticks_release": 72
        },
        {
          "note": 42,
          "time_ticks_press": 60,
          "velocity": 99,
          "time_ticks_release": 64
        },
        {
          "note": 38,
          "time_ticks_press": 72,
          "velocity": 99,
          "time_ticks_release": 84
        },
        {
          "note": 42,
          "time_ticks_press": 72,
          "velocity": 99,
          "time_ticks_release": 76
        },
        {
          "note": 42,
          "time_ticks_press": 84,
          "velocity": 99,
          "time_ticks_release": 88
        },
        {
          "note": 46,
          "time_ticks_press": 90,
          "velocity": 99,
          "time_ticks_release": 94
        }
      ]
    },
    {
      "length_beats": 4,
      "events": [
        {
          "note": 36,
          "time_ticks_press": 0,
          "velocity": 99,
          "time_ticks_release": 4
        },
        {
          "note": 42,
          "time_ticks_press": 0,
          "velocity": 99,
          "time_ticks_release": 4
        },
        {
          "note": 42,
          "time_ticks_press": 8,
          "velocity": 61,
          "time_ticks_release": 12
        },
        {
          "note": 42,
          "time_ticks_press": 12,
          "velocity": 99,
          "time_ticks_release": 16
        },
        {
          "note": 46,
          "time_ticks_press": 12,
          "velocity": 62,
          "time_ticks_release": 16
        },
        {
          "note": 42,
          "time_ticks_press": 20,
          "velocity": 61,
          "time_ticks_release": 24
        },
        {
          "note": 42,
          "time_ticks_press": 24,
          "velocity": 99,
          "time_ticks_release": 28
        },
        {
          "note": 40,
          "time_ticks_press": 24,
          "velocity": 99,
          "time_ticks_release": 28
        },
        {
          "note": 38,
          "time_ticks_press": 24,
          "velocity": 77,
          "time_ticks_release": 28
        },
        {
          "note": 42,
          "time_ticks_press": 32,
          "velocity": 61,
          "time_ticks_release": 36
        },
        {
          "note": 37,
          "time_ticks_press": 36,
          "velocity": 77,
          "time_ticks_release": 40
        },
        {
          "note": 42,
          "time_ticks_press": 36,
          "velocity": 99,
          "time_ticks_release": 40
        },
        {
          "note": 46,
          "time_ticks_press": 36,
          "velocity": 62,
          "time_ticks_release": 40
        },
        {
          "note": 37,
          "time_ticks_press": 44,
          "velocity": 48,
          "time_ticks_release": 48
        },
        {
          "note": 42,
          "time_ticks_press": 44,
          "velocity": 61,
          "time_ticks_release": 48
        },
        {
          "note": 42,
          "time_ticks_press": 48,
          "velocity": 99,
          "time_ticks_release": 52
        },
        {
          "note": 36,
          "time_ticks_press": 48,
          "velocity": 99,
          "time_ticks_release": 52
        },
        {
          "note": 37,
          "time_ticks_press": 56,
          "velocity": 62,
          "time_ticks_release": 60
        },
        {
          "note": 42,
          "time_ticks_press": 56,
          "velocity": 61,
          "time_ticks_release": 60
        },
        {
          "note": 37,
          "time_ticks_press": 60,
          "velocity": 77,
          "time_ticks_release": 64
        },
        {
          "note": 42,
          "time_ticks_press": 60,
          "velocity": 99,
          "time_ticks_release": 64
        },
        {
          "note": 46,
          "time_ticks_press": 60,
          "velocity": 62,
          "time_ticks_release": 64
        },
        {
          "note": 38,
          "time_ticks_press": 68,
          "velocity": 77,
          "time_ticks_release": 72
        },
        {
          "note": 40,
          "time_ticks_press": 68,
          "velocity": 99,
          "time_ticks_release": 72
        },
        {
          "note": 42,
          "time_ticks_press": 68,
          "velocity": 61,
          "time_ticks_release": 72
        },
        {
          "note": 46,
          "time_ticks_press": 68,
          "velocity": 62,
          "time_ticks_release": 72
        },
        {
          "note": 42,
          "time_ticks_press": 72,
          "velocity": 99,
          "time_ticks_release": 76
        },
        {
          "note": 42,
          "time_ticks_press": 80,
          "velocity": 61,
          "time_ticks_release": 84
        },
        {
          "note": 42,
          "time_ticks_press": 84,
          "velocity": 99,
          "time_ticks_release": 88
        },
        {
          "note": 42,
          "time_ticks_press": 92,
          "velocity": 61,
          "time_ticks_release": 96
        },
        {
          "note": 36,
          "time_ticks_press": 92,
          "velocity": 77,
          "time_ticks_release": 96
        }
      ]
    },
    {
      "length_beats": 4,
      "events": [
        {
          "note": 42,
          "time_ticks_press": 0,
          "velocity": 95,
          "time_ticks_release": 4
        },
        {
          "note": 36,
          "time_ticks_press": 0,
          "velocity": 95,
          "time_ticks_release": 4
        },
        {
          "note": 42,
          "time_ticks_press": 6,
          "velocity": 60,
          "time_ticks_release": 10
        },
        {
          "note": 42,
          "time_ticks_press": 12,
          "velocity": 95,
          "time_ticks_release": 16
        },
        {
          "note": 46,
          "time_ticks_press": 12,
          "velocity": 64,
          "time_ticks_release": 15
        },
        {
          "note": 42,
          "time_ticks_press": 18,
          "velocity": 60,
          "time_ticks_release": 22
        },
        {
          "note": 37,
          "time_ticks_press": 24,
          "velocity": 95,
          "time_ticks_release": 28
        },
        {
          "note": 40,
          "time_ticks_press": 24,
          "velocity": 94,
          "time_ticks_release": 27
        },
        {
          "note": 47,
          "time_ticks_press": 30,
          "velocity": 67,
          "time_ticks_release": 34
        },
        {
          "note": 46,
          "time_ticks_press": 36,
          "velocity": 66,
          "time_ticks_release": 39
        },
        {
          "note": 37,
          "time_ticks_press": 42,
          "velocity": 95,
          "time_ticks_release": 46
        },
        {
          "note": 40,
          "time_ticks_press": 42,
          "velocity": 94,
          "time_ticks_release": 45
        },
        {
          "note": 36,
          "time_ticks_press": 48,
          "velocity": 95,
          "time_ticks_release": 52
        },
        {
          "note": 42,
          "time_ticks_press": 48,
          "velocity": 66,
          "time_ticks_release": 49
        },
        {
          "note": 42,
          "time_ticks_press": 48,
          "velocity": 66,
          "time_ticks_release": 52
        },
        {
          "note": 36,
          "time_ticks_press": 56,
          "velocity": 95,
          "time_ticks_release": 60
        },
        {
          "note": 42,
          "time_ticks_press": 56,
          "velocity": 65,
          "time_ticks_release": 57
        },
        {
          "note": 42,
          "time_ticks_press": 56,
          "velocity": 65,
          "time_ticks_release": 60
        },
        {
          "note": 36,
          "time_ticks_press": 64,
          "velocity": 95,
          "time_ticks_release": 68
        },
        {
          "note": 42,
          "time_ticks_press": 64,
          "velocity": 61,
          "time_ticks_release": 68
        },
        {
          "note": 42,
          "time_ticks_press": 72,
          "velocity": 95,
          "time_ticks_release": 76
        },
        {
          "note": 37,
          "time_ticks_press": 72,
          "velocity": 95,
          "time_ticks_release": 76
        },
        {
          "note": 45,
          "time_ticks_press": 72,
          "velocity": 67,
          "time_ticks_release": 76
        },
        {
          "note": 40,
          "time_ticks_press": 72,
          "velocity": 95,
          "time_ticks_release": 75
        },
        {
          "note": 42,
          "time_ticks_press": 78,
          "velocity": 60,
          "time_ticks_release": 82
        },
        {
          "note": 42,
          "time_ticks_press": 84,
          "velocity": 95,
          "time_ticks_release": 88
        },
        {
          "note": 47,
          "time_ticks_press": 84,
          "velocity": 67,
          "time_ticks_release": 88
        },
        {
          "note": 46,
          "time_ticks_press": 84,
          "velocity": 67,
          "time_ticks_release": 87
        },
        {
          "note": 42,
          "time_ticks_press": 90,
          "velocity": 60,
          "time_ticks_release": 91
        },
        {
          "note": 36,
          "time_ticks_press": 90,
          "velocity": 95,
          "time_ticks_release": 93
        },
        {
          "note": 42,
          "time_ticks_press": 93,
          "velocity": 59,
          "time_ticks_release": 94
        }
      ]
    },
    {
      "length_beats": 4,
      "events": [
        {
          "note": 36,
          "time_ticks_press": 0,
          "velocity": 114,
          "time_ticks_release": 4
        },
        {
          "note": 42,
          "time_ticks_press": 0,
          "velocity": 95,
          "time_ticks_release": 4
        },
        {
          "note": 42,
          "time_ticks_press": 12,
          "velocity": 90,
          "time_ticks_release": 16
        },
        {
          "note": 36,
          "time_ticks_press": 12,
          "velocity": 110,
          "time_ticks_release": 16
        },
        {
          "note": 37,
          "time_ticks_press": 24,
          "velocity": 73,
          "time_ticks_release": 28
        },
        {
          "note": 42,
          "time_ticks_press": 24,
          "velocity": 95,
          "time_ticks_release": 28
        },
        {
          "note": 42,
          "time_ticks_press": 36,
          "velocity": 70,
          "time_ticks_release": 40
        },
        {
          "note": 36,
          "time_ticks_press": 48,
          "velocity": 116,
          "time_ticks_release": 52
        },
        {
          "note": 42,
          "time_ticks_press": 48,
          "velocity": 87,
          "time_ticks_release": 52
        },
        {
          "note": 36,
          "time_ticks_press": 60,
          "velocity": 114,
          "time_ticks_release": 64
        },
        {
          "note": 42,
          "time_ticks_press": 60,
          "velocity": 88,
          "time_ticks_release": 64
        },
        {
          "note": 37,
          "time_ticks_press": 72,
          "velocity": 69,
          "time_ticks_release": 76
        },
        {
          "note": 42,
          "time_ticks_press": 72,
          "velocity": 73,
          "time_ticks_release": 76
        },
        {
          "note": 46,
          "time_ticks_press": 84,
          "velocity": 91,
          "time_ticks_release": 88
        }
      ]
    },
    {
      "length_beats": 4,
      "events": [
        {
          "note": 42,
          "time_ticks_press": 0,
          "velocity": 114,
          "time_ticks_release": 6
        },
        {
          "note": 36,
          "time_ticks_press": 0,
          "velocity": 126,
          "time_ticks_release": 6
        },
        {
          "note": 42,
          "time_ticks_press": 6,
          "velocity": 95,
          "time_ticks_release": 7
        },
        {
          "note": 42,
          "time_ticks_press": 12,
          "velocity": 58,
          "time_ticks_release": 13
        },
        {
          "note": 42,
          "time_ticks_press": 18,
          "velocity": 107,
          "time_ticks_release": 19
        },
        {
          "note": 40,
          "time_ticks_press": 18,
          "velocity": 122,
          "time_ticks_release": 19
        },
        {
          "note": 42,
          "time_ticks_press": 24,
          "velocity": 126,
          "time_ticks_release": 30
        },
        {
          "note": 36,
          "time_ticks_press": 24,
          "velocity": 109,
          "time_ticks_release": 25
        },
        {
          "note": 42,
          "time_ticks_press": 30,
          "velocity": 85,
          "time_ticks_release": 31
        },
        {
          "note": 42,
          "time_ticks_press": 36,
          "velocity": 27,
          "time_ticks_release": 37
        },
        {
          "note": 40,
          "time_ticks_press": 36,
          "velocity": 122,
          "time_ticks_release": 42
        },
        {
          "note": 42,
          "time_ticks_press": 42,
          "velocity": 114,
          "time_ticks_release": 43
        },
        {
          "note": 42,
          "time_ticks_press": 48,
          "velocity": 126,
          "time_ticks_release": 54
        },
        {
          "note": 36,
          "time_ticks_press": 48,
          "velocity": 126,
          "time_ticks_release": 54
        },
        {
          "note": 42,
          "time_ticks_press": 60,
          "velocity": 70,
          "time_ticks_release": 61
        },
        {
          "note": 42,
          "time_ticks_press": 66,
          "velocity": 107,
          "time_ticks_release": 67
        },
        {
          "note": 40,
          "time_ticks_press": 66,
          "velocity": 114,
          "time_ticks_release": 72
        },
        {
          "note": 42,
          "time_ticks_press": 72,
          "velocity": 126,
          "time_ticks_release": 78
        },
        {
          "note": 36,
          "time_ticks_press": 72,
          "velocity": 114,
          "time_ticks_release": 78
        },
        {
          "note": 42,
          "time_ticks_press": 78,
          "velocity": 73,
          "time_ticks_release": 79
        },
        {
          "note": 42,
          "time_ticks_press": 84,
          "velocity": 40,
          "time_ticks_release": 85
        },
        {
          "note": 40,
          "time_ticks_press": 84,
          "velocity": 99,
          "time_ticks_release": 90
        },
        {
          "note": 42,
          "time_ticks_press": 90,
          "velocity": 107,
          "time_ticks_release": 91
        },
        {
          "note": 38,
          "time_ticks_press": 90,
          "velocity": 114,
          "time_ticks_release": 96
        }
      ]
    },
    {
      "length_beats": 4,
      "events": [
        {
          "note": 51,
          "time_ticks_press": 0,
          "velocity": 114,
          "time_ticks_release": 1
        },
        {
          "note": 36,
          "time_ticks_press": 0,
          "velocity": 126,
          "time_ticks_release": 6
        },
        {
          "note": 38,
          "time_ticks_press": 0,
          "velocity": 90,
          "time_ticks_release": 1
        },
        {
          "note": 51,
          "time_ticks_press": 6,
          "velocity": 89,
          "time_ticks_release": 7
        },
        {
          "note": 51,
          "time_ticks_press": 12,
          "velocity": 89,
          "time_ticks_release": 13
        },
        {
          "note": 51,
          "time_ticks_press": 18,
          "velocity": 100,
          "time_ticks_release": 19
        },
        {
          "note": 40,
          "time_ticks_press": 18,
          "velocity": 122,
          "time_ticks_release": 24
        },
        {
          "note": 51,
          "time_ticks_press": 24,
          "velocity": 100,
          "time_ticks_release": 25
        },
        {
          "note": 51,
          "time_ticks_press": 30,
          "velocity": 100,
          "time_ticks_release": 31
        },
        {
          "note": 51,
          "time_ticks_press": 36,
          "velocity": 114,
          "time_ticks_release": 37
        },
        {
          "note": 40,
          "time_ticks_press": 36,
          "velocity": 122,
          "time_ticks_release": 42
        },
        {
          "note": 51,
          "time_ticks_press": 42,
          "velocity": 114,
          "time_ticks_release": 43
        },
        {
          "note": 51,
          "time_ticks_press": 42,
          "velocity": 100,
          "time_ticks_release": 43
        },
        {
          "note": 51,
          "time_ticks_press": 48,
          "velocity": 95,
          "time_ticks_release": 54
        },
        {
          "note": 36,
          "time_ticks_press": 48,
          "velocity": 126,
          "time_ticks_release": 54
        },
        {
          "note": 38,
          "time_ticks_press": 48,
          "velocity": 114,
          "time_ticks_release": 54
        },
        {
          "note": 51,
          "time_ticks_press": 60,
          "velocity": 114,
          "time_ticks_release": 61
        },
        {
          "note": 51,
          "time_ticks_press": 60,
          "velocity": 89,
          "time_ticks_release": 61
        },
        {
          "note": 40,
          "time_ticks_press": 66,
          "velocity": 126,
          "time_ticks_release": 72
        },
        {
          "note": 51,
          "time_ticks_press": 72,
          "velocity": 126,
          "time_ticks_release": 73
        },
        {
          "note": 51,
          "time_ticks_press": 72,
          "velocity": 89,
          "time_ticks_release": 73
        },
        {
          "note": 51,
          "time_ticks_press": 84,
          "velocity": 95,
          "time_ticks_release": 85
        },
        {
          "note": 45,
          "time_ticks_press": 84,
          "velocity": 122,
          "time_ticks_release": 90
        },
        {
          "note": 51,
          "time_ticks_press": 90,
          "velocity": 114,
          "time_ticks_release": 91
        },
        {
          "note": 45,
          "time_ticks_press": 90,
          "velocity": 109,
          "time_ticks_release": 96
        }
      ]
    },
    {
      "length_beats": 4,
      "events": [
        {
          "note": 43,
          "time_ticks_press": 0,
          "velocity": 44,
          "time_ticks_release": 6
        },
        {
          "note": 36,
          "time_ticks_press": 0,
          "velocity": 123,
          "time_ticks_release": 6
        },
        {
          "note": 51,
          "time_ticks_press": 0,
          "velocity": 98,
          "time_ticks_release": 6
        },
        {
          "note": 43,
          "time_ticks_press": 12,
          "velocity": 38,
          "time_ticks_release": 18
        },
        {
          "note": 43,
          "time_ticks_press": 24,
          "velocity": 80,
          "time_ticks_release": 28
        },
        {
          "note": 40,
          "time_ticks_press": 24,
          "velocity": 115,
          "time_ticks_release": 28
        },
        {
          "note": 51,
          "time_ticks_press": 24,
          "velocity": 98,
          "time_ticks_release": 30
        },
        {
          "note": 36,
          "time_ticks_press": 36,
          "velocity": 72,
          "time_ticks_release": 42
        },
        {
          "note": 43,
          "time_ticks_press": 36,
          "velocity": 41,
          "time_ticks_release": 42
        },
        {
          "note": 47,
          "time_ticks_press": 39,
          "velocity": 17,
          "time_ticks_release": 45
        },
        {
          "note": 43,
          "time_ticks_press": 48,
          "velocity": 83,
          "time_ticks_release": 54
        },
        {
          "note": 36,
          "time_ticks_press": 48,
          "velocity": 99,
          "time_ticks_release": 54
        },
        {
          "note": 51,
          "time_ticks_press": 48,
          "velocity": 97,
          "time_ticks_release": 54
        },
        {
          "note": 43,
          "time_ticks_press": 60,
          "velocity": 43,
          "time_ticks_release": 64
        },
        {
          "note": 36,
          "time_ticks_press": 60,
          "velocity": 103,
          "time_ticks_release": 64
        },
        {
          "note": 40,
          "time_ticks_press": 72,
          "velocity": 105,
          "time_ticks_release": 76
        },
        {
          "note": 47,
          "time_ticks_press": 72,
          "velocity": 89,
          "time_ticks_release": 76
        },
        {
          "note": 43,
          "time_ticks_press": 72,
          "velocity": 62,
          "time_ticks_release": 78
        },
        {
          "note": 51,
          "time_ticks_press": 72,
          "velocity": 95,
          "time_ticks_release": 78
        },
        {
          "note": 43,
          "time_ticks_press": 84,
          "velocity": 41,
          "time_ticks_release": 88
        },
        {
          "note": 36,
          "time_ticks_press": 84,
          "velocity": 82,
          "time_ticks_release": 88
        }
      ]
    },
    {
      "length_beats": 4,
      "events": [
        {
          "note": 36,
          "time_ticks_press": 0,
          "velocity": 122,
          "time_ticks_release": 12
        },
        {
          "note": 42,
          "time_ticks_press": 0,
          "velocity": 114,
          "time_ticks_release": 6
        },
        {
          "note": 37,
          "time_ticks_press": 12,
          "velocity": 126,
          "time_ticks_release": 18
        },
        {
          "note": 42,
          "time_ticks_press": 12,
          "velocity": 100,
          "time_ticks_release": 18
        },
        {
          "note": 36,
          "time_ticks_press": 18,
          "velocity": 122,
          "time_ticks_release": 19
        },
        {
          "note": 36,
          "time_ticks_press": 24,
          "velocity": 122,
          "time_ticks_release": 36
        },
        {
          "note": 42,
          "time_ticks_press": 24,
          "velocity": 114,
          "time_ticks_release": 25
        },
        {
          "note": 37,
          "time_ticks_press": 30,
          "velocity": 114,
          "time_ticks_release": 36
        },
        {
          "note": 42,
          "time_ticks_press": 36,
          "velocity": 85,
          "time_ticks_release": 37
        },
        {
          "note": 36,
          "time_ticks_press": 42,
          "velocity": 126,
          "time_ticks_release": 43
        },
        {
          "note": 36,
          "time_ticks_press": 48,
          "velocity": 122,
          "time_ticks_release": 60
        },
        {
          "note": 37,
          "time_ticks_press": 48,
          "velocity": 126,
          "time_ticks_release": 54
        },
        {
          "note": 42,
          "time_ticks_press": 48,
          "velocity": 126,
          "time_ticks_release": 54
        },
        {
          "note": 42,
          "time_ticks_press": 60,
          "velocity": 50,
          "time_ticks_release": 61
        },
        {
          "note": 37,
          "time_ticks_press": 66,
          "velocity": 126,
          "time_ticks_release": 72
        },
        {
          "note": 36,
          "time_ticks_press": 66,
          "velocity": 126,
          "time_ticks_release": 72
        },
        {
          "note": 42,
          "time_ticks_press": 72,
          "velocity": 126,
          "time_ticks_release": 78
        },
        {
          "note": 36,
          "time_ticks_press": 72,
          "velocity": 126,
          "time_ticks_release": 84
        },
        {
          "note": 42,
          "time_ticks_press": 84,
          "velocity": 77,
          "time_ticks_release": 85
        },
        {
          "note": 37,
          "time_ticks_press": 84,
          "velocity": 126,
          "time_ticks_release": 90
        },
        {
          "note": 46,
          "time_ticks_press": 90,
          "velocity": 114,
          "time_ticks_release": 91
        },
        {
          "note": 36,
          "time_ticks_press": 90,
          "velocity": 126,
          "time_ticks_release": 91
        }
      ]
    },
    {
      "length_beats": 4,
      "events": [
        {
          "note": 42,
          "time_ticks_press": 0,
          "velocity": 85,
          "time_ticks_release": 6
        },
        {
          "note": 36,
          "time_ticks_press": 0,
          "velocity": 99,
          "time_ticks_release": 6
        },
        {
          "note": 55,
          "time_ticks_press": 0,
          "velocity": 97,
          "time_ticks_release": 6
        },
        {
          "note": 36,
          "time_ticks_press": 6,
          "velocity": 56,
          "time_ticks_release": 12
        },
        {
          "note": 42,
          "time_ticks_press": 12,
          "velocity": 25,
          "time_ticks_release": 18
        },
        {
          "note": 36,
          "time_ticks_press": 18,
          "velocity": 109,
          "time_ticks_release": 24
        },
        {
          "note": 38,
          "time_ticks_press": 24,
          "velocity": 104,
          "time_ticks_release": 25
        },
        {
          "note": 42,
          "time_ticks_press": 24,
          "velocity": 67,
          "time_ticks_release": 30
        },
        {
          "note": 38,
          "time_ticks_press": 30,
          "velocity": 74,
          "time_ticks_release": 31
        },
        {
          "note": 42,
          "time_ticks_press": 36,
          "velocity": 67,
          "time_ticks_release": 42
        },
        {
          "note": 38,
          "time_ticks_press": 42,
          "velocity": 53,
          "time_ticks_release": 48
        },
        {
          "note": 42,
          "time_ticks_press": 48,
          "velocity": 85,
          "time_ticks_release": 54
        },
        {
          "note": 38,
          "time_ticks_press": 54,
          "velocity": 31,
          "time_ticks_release": 60
        },
        {
          "note": 42,
          "time_ticks_press": 60,
          "velocity": 85,
          "time_ticks_release": 66
        },
        {
          "note": 36,
          "time_ticks_press": 60,
          "velocity": 98,
          "time_ticks_release": 66
        },
        {
          "note": 42,
          "time_ticks_press": 72,
          "velocity": 77,
          "time_ticks_release": 78
        },
        {
          "note": 38,
          "time_ticks_press": 78,
          "velocity": 94,
          "time_ticks_release": 84
        },
        {
          "note": 42,
          "time_ticks_press": 84,
          "velocity": 77,
          "time_ticks_release": 90
        },
        {
          "note": 38,
          "time_ticks_press": 90,
          "velocity": 94,
          "time_ticks_release": 96
        }
      ]
    },
    {
      "length_beats": 4,
      "events": [
        {
          "note": 36,
          "time_ticks_press": 0,
          "velocity": 122,
          "time_ticks_release": 4
        },
        {
          "note": 42,
          "time_ticks_press": 0,
          "velocity": 114,
          "time_ticks_release": 4
        },
        {
          "note": 42,
          "time_ticks_press": 8,
          "velocity": 62,
          "time_ticks_release": 12
        },
        {
          "note": 42,
          "time_ticks_press": 16,
          "velocity": 89,
          "time_ticks_release": 17
        },
        {
          "note": 42,
          "time_ticks_press": 24,
          "velocity": 114,
          "time_ticks_release": 28
        },
        {
          "note": 38,
          "time_ticks_press": 24,
          "velocity": 114,
          "time_ticks_release": 28
        },
        {
          "note": 42,
          "time_ticks_press": 32,
          "velocity": 77,
          "time_ticks_release": 36
        },
        {
          "note": 42,
          "time_ticks_press": 40,
          "velocity": 107,
          "time_ticks_release": 44
        },
        {
          "note": 42,
          "time_ticks_press": 48,
          "velocity": 114,
          "time_ticks_release": 52
        },
        {
          "note": 36,
          "time_ticks_press": 48,
          "velocity": 126,
          "time_ticks_release": 52
        },
        {
          "note": 42,
          "time_ticks_press": 56,
          "velocity": 85,
          "time_ticks_release": 60
        },
        {
          "note": 42,
          "time_ticks_press": 64,
          "velocity": 100,
          "time_ticks_release": 65
        },
        {
          "note": 42,
          "time_ticks_press": 72,
          "velocity": 114,
          "time_ticks_release": 76
        },
        {
          "note": 38,
          "time_ticks_press": 72,
          "velocity": 122,
          "time_ticks_release": 76
        },
        {
          "note": 42,
          "time_ticks_press": 80,
          "velocity": 95,
          "time_ticks_release": 81
        },
        {
          "note": 42,
          "time_ticks_press": 88,
          "velocity": 107,
          "time_ticks_release": 89
        },
        {
          "note": 36,
          "time_ticks_press": 88,
          "velocity": 109,
          "time_ticks_release": 89
        }
      ]
    },
    {
      "length_beats": 4,
      "events": [
        {
          "note": 42,
          "time_ticks_press": 0,
          "velocity": 88,
          "time_ticks_release": 2
        },
        {
          "note": 36,
          "time_ticks_press": 0,
          "velocity": 88,
          "time_ticks_release": 2
        },
        {
          "note": 46,
          "time_ticks_press": 12,
          "velocity": 67,
          "time_ticks_release": 14
        },
        {
          "note": 42,
          "time_ticks_press": 24,
          "velocity": 80,
          "time_ticks_release": 26
        },
        {
          "note": 37,
          "time_ticks_press": 24,
          "velocity": 115,
          "time_ticks_release": 26
        },
        {
          "note": 42,
          "time_ticks_press": 36,
          "velocity": 77,
          "time_ticks_release": 38
        },
        {
          "note": 36,
          "time_ticks_press": 36,
          "velocity": 47,
          "time_ticks_release": 38
        },
        {
          "note": 46,
          "time_ticks_press": 48,
          "velocity": 79,
          "time_ticks_release": 50
        },
        {
          "note": 36,
          "time_ticks_press": 48,
          "velocity": 87,
          "time_ticks_release": 50
        },
        {
          "note": 42,
          "time_ticks_press": 60,
          "velocity": 70,
          "time_ticks_release": 62
        },
        {
          "note": 42,
          "time_ticks_press": 72,
          "velocity": 67,
          "time_ticks_release": 74
        },
        {
          "note": 37,
          "time_ticks_press": 72,
          "velocity": 113,
          "time_ticks_release": 74
        },
        {
          "note": 42,
          "time_ticks_press": 84,
          "velocity": 79,
          "time_ticks_release": 86
        },
        {
          "note": 36,
          "time_ticks_press": 84,
          "velocity": 48,
          "time_ticks_release": 86
        }
      ]
    },
    {
      "length_beats": 4,
      "events": [
        {
          "note": 46,
          "time_ticks_press": 0,
          "velocity": 84,
          "time_ticks_release": 4
        },
        {
          "note": 36,
          "time_ticks_press": 0,
          "velocity": 108,
          "time_ticks_release": 4
        },
        {
          "note": 37,
          "time_ticks_press": 0,
          "velocity": 107,
          "time_ticks_release": 4
        },
        {
          "note": 42,
          "time_ticks_press": 8,
          "velocity": 92,
          "time_ticks_release": 12
        },
        {
          "note": 37,
          "time_ticks_press": 16,
          "velocity": 84,
          "time_ticks_release": 20
        },
        {
          "note": 38,
          "time_ticks_press": 24,
          "velocity": 108,
          "time_ticks_release": 28
        },
        {
          "note": 37,
          "time_ticks_press": 24,
          "velocity": 90,
          "time_ticks_release": 28
        },
        {
          "note": 42,
          "time_ticks_press": 24,
          "velocity": 93,
          "time_ticks_release": 28
        },
        {
          "note": 37,
          "time_ticks_press": 40,
          "velocity": 89,
          "time_ticks_release": 44
        },
        {
          "note": 42,
          "time_ticks_press": 48,
          "velocity": 81,
          "time_ticks_release": 52
        },
        {
          "note": 36,
          "time_ticks_press": 48,
          "velocity": 105,
          "time_ticks_release": 52
        },
        {
          "note": 37,
          "time_ticks_press": 48,
          "velocity": 79,
          "time_ticks_release": 52
        },
        {
          "note": 37,
          "time_ticks_press": 64,
          "velocity": 84,
          "time_ticks_release": 68
        },
        {
          "note": 38,
          "time_ticks_press": 72,
          "velocity": 109,
          "time_ticks_release": 76
        },
        {
          "note": 37,
          "time_ticks_press": 72,
          "velocity": 85,
          "time_ticks_release": 76
        },
        {
          "note": 42,
          "time_ticks_press": 72,
          "velocity": 88,
          "time_ticks_release": 76
        },
        {
          "note": 37,
          "time_ticks_press": 88,
          "velocity": 87,
          "time_ticks_release": 92
        }
      ]
    },
    {
      "length_beats": 4,
      "events": [
        {
          "note": 44,
          "time_ticks_press": 0,
          "velocity": 93,
          "time_ticks_release": 3
        },
        {
          "note": 36,
          "time_ticks_press": 0,
          "velocity": 116,
          "time_ticks_release": 3
        },
        {
          "note": 44,
          "time_ticks_press": 6,
          "velocity": 93,
          "time_ticks_release": 9
        },
        {
          "note": 46,
          "time_ticks_press": 12,
          "velocity": 94,
          "time_ticks_release": 15
        },
        {
          "note": 40,
          "time_ticks_press": 24,
          "velocity": 118,
          "time_ticks_release": 27
        },
        {
          "note": 44,
          "time_ticks_press": 24,
          "velocity": 88,
          "time_ticks_release": 27
        },
        {
          "note": 36,
          "time_ticks_press": 24,
          "velocity": 116,
          "time_ticks_release": 27
        },
        {
          "note": 46,
          "time_ticks_press": 36,
          "velocity": 96,
          "time_ticks_release": 39
        },
        {
          "note": 44,
          "time_ticks_press": 48,
          "velocity": 94,
          "time_ticks_release": 51
        },
        {
          "note": 36,
          "time_ticks_press": 48,
          "velocity": 116,
          "time_ticks_release": 51
        },
        {
          "note": 44,
          "time_ticks_press": 54,
          "velocity": 89,
          "time_ticks_release": 57
        },
        {
          "note": 46,
          "time_ticks_press": 60,
          "velocity": 93,
          "time_ticks_release": 63
        },
        {
          "note": 44,
          "time_ticks_press": 72,
          "velocity": 98,
          "time_ticks_release": 75
        },
        {
          "note": 40,
          "time_ticks_press": 72,
          "velocity": 118,
          "time_ticks_release": 75
        },
        {
          "note": 36,
          "time_ticks_press": 72,
          "velocity": 116,
          "time_ticks_release": 75
        },
        {
          "note": 46,
          "time_ticks_press": 84,
          "velocity": 92,
          "time_ticks_release": 87
        }
      ]
    },
    {
      "length_beats": 4,
      "events": [
        {
          "note": 42,
          "time_ticks_press": 0,
          "velocity": 114,
          "time_ticks_release": 6
        },
        {
          "note": 36,
          "time_ticks_press": 0,
          "velocity": 114,
          "time_ticks_release": 6
        },
        {
          "note": 42,
          "time_ticks_press": 12,
          "velocity": 100,
          "time_ticks_release": 18
        },
        {
          "note": 36,
          "time_ticks_press": 12,
          "velocity": 104,
          "time_ticks_release": 18
        },
        {
          "note": 42,
          "time_ticks_press": 24,
          "velocity": 114,
          "time_ticks_release": 30
        },
        {
          "note": 38,
          "time_ticks_press": 24,
          "velocity": 126,
          "time_ticks_release": 30
        },
        {
          "note": 42,
          "time_ticks_press": 36,
          "velocity": 73,
          "time_ticks_release": 37
        },
        {
          "note": 38,
          "time_ticks_press": 42,
          "velocity": 99,
          "time_ticks_release": 48
        },
        {
          "note": 36,
          "time_ticks_press": 48,
          "velocity": 122,
          "time_ticks_release": 54
        },
        {
          "note": 42,
          "time_ticks_press": 48,
          "velocity": 107,
          "time_ticks_release": 60
        },
        {
          "note": 42,
          "time_ticks_press": 60,
          "velocity": 100,
          "time_ticks_release": 66
        },
        {
          "note": 36,
          "time_ticks_press": 60,
          "velocity": 109,
          "time_ticks_release": 66
        },
        {
          "note": 37,
          "time_ticks_press": 66,
          "velocity": 0,
          "time_ticks_release": 67
        },
        {
          "note": 37,
          "time_ticks_press": 67,
          "velocity": 5,
          "time_ticks_release": 68
        },
        {
          "note": 37,
          "time_ticks_press": 68,
          "velocity": 10,
          "time_ticks_release": 69
        },
        {
          "note": 37,
          "time_ticks_press": 68,
          "velocity": 15,
          "time_ticks_release": 69
        },
        {
          "note": 37,
          "time_ticks_press": 69,
          "velocity": 20,
          "time_ticks_release": 70
        },
        {
          "note": 37,
          "time_ticks_press": 70,
          "velocity": 26,
          "time_ticks_release": 71
        },
        {
          "note": 37,
          "time_ticks_press": 70,
          "velocity": 31,
          "time_ticks_release": 71
        },
        {
          "note": 37,
          "time_ticks_press": 71,
          "velocity": 36,
          "time_ticks_release": 72
        },
        {
          "note": 37,
          "time_ticks_press": 72,
          "velocity": 41,
          "time_ticks_release": 73
        },
        {
          "note": 37,
          "time_ticks_press": 73,
          "velocity": 46,
          "time_ticks_release": 74
        },
        {
          "note": 37,
          "time_ticks_press": 74,
          "velocity": 52,
          "time_ticks_release": 75
        },
        {
          "note": 37,
          "time_ticks_press": 74,
          "velocity": 57,
          "time_ticks_release": 75
        },
        {
          "note": 37,
          "time_ticks_press": 75,
          "velocity": 61,
          "time_ticks_release": 76
        },
        {
          "note": 37,
          "time_ticks_press": 76,
          "velocity": 66,
          "time_ticks_release": 77
        },
        {
          "note": 37,
          "time_ticks_press": 76,
          "velocity": 71,
          "time_ticks_release": 77
        },
        {
          "note": 37,
          "time_ticks_press": 77,
          "velocity": 77,
          "time_ticks_release": 78
        },
        {
          "note": 37,
          "time_ticks_press": 78,
          "velocity": 82,
          "time_ticks_release": 79
        },
        {
          "note": 37,
          "time_ticks_press": 79,
          "velocity": 87,
          "time_ticks_release": 80
        },
        {
          "note": 37,
          "time_ticks_press": 80,
          "velocity": 92,
          "time_ticks_release": 81
        },
        {
          "note": 37,
          "time_ticks_press": 80,
          "velocity": 97,
          "time_ticks_release": 81
        },
        {
          "note": 37,
          "time_ticks_press": 81,
          "velocity": 103,
          "time_ticks_release": 82
        },
        {
          "note": 37,
          "time_ticks_press": 82,
          "velocity": 108,
          "time_ticks_release": 83
        },
        {
          "note": 37,
          "time_ticks_press": 82,
          "velocity": 113,
          "time_ticks_release": 83
        },
        {
          "note": 37,
          "time_ticks_press": 83,
          "velocity": 118,
          "time_ticks_release": 84
        },
        {
          "note": 38,
          "time_ticks_press": 84,
          "velocity": 111,
          "time_ticks_release": 85
        },
        {
          "note": 38,
          "time_ticks_press": 86,
          "velocity": 118,
          "time_ticks_release": 87
        },
        {
          "note": 38,
          "time_ticks_press": 87,
          "velocity": 107,
          "time_ticks_release": 88
        },
        {
          "note": 38,
          "time_ticks_press": 88,
          "velocity": 96,
          "time_ticks_release": 90
        },
        {
          "note": 38,
          "time_ticks_press": 90,
          "velocity": 85,
          "time_ticks_release": 91
        },
        {
          "note": 38,
          "time_ticks_press": 92,
          "velocity": 75,
          "time_ticks_release": 93
        },
        {
          "note": 38,
          "time_ticks_press": 93,
          "velocity": 64,
          "time_ticks_release": 94
        },
        {
          "note": 38,
          "time_ticks_press": 94,
          "velocity": 54,
          "time_ticks_release": 96
        }
      ]
    },
    {
      "length_beats": 4,
      "events": [
        {
          "note": 51,
          "time_ticks_press": 0,
          "velocity": 95,
          "time_ticks_release": 6
        },
        {
          "note": 51,
          "time_ticks_press": 12,
          "velocity": 100,
          "time_ticks_release": 13
        },
        {
          "note": 38,
          "time_ticks_press": 24,
          "velocity": 126,
          "time_ticks_release": 30
        },
        {
          "note": 51,
          "time_ticks_press": 24,
          "velocity": 126,
          "time_ticks_release": 30
        },
        {
          "note": 51,
          "time_ticks_press": 36,
          "velocity": 89,
          "time_ticks_release": 37
        },
        {
          "note": 51,
          "time_ticks_press": 42,
          "velocity": 114,
          "time_ticks_release": 43
        },
        {
          "note": 51,
          "time_ticks_press": 48,
          "velocity": 126,
          "time_ticks_release": 54
        },
        {
          "note": 45,
          "time_ticks_press": 60,
          "velocity": 126,
          "time_ticks_release": 66
        },
        {
          "note": 51,
          "time_ticks_press": 60,
          "velocity": 126,
          "time_ticks_release": 66
        },
        {
          "note": 51,
          "time_ticks_press": 72,
          "velocity": 100,
          "time_ticks_release": 73
        },
        {
          "note": 51,
          "time_ticks_press": 84,
          "velocity": 107,
          "time_ticks_release": 90
        },
        {
          "note": 45,
          "time_ticks_press": 84,
          "velocity": 126,
          "time_ticks_release": 90
        }
      ]
    }
  ]
}