<svg width="125" height="11" viewBox="0 0 125 11" fill="none" xmlns="http://www.w3.org/2000/svg">
<path d="M10.444 10.2344H8.26001L6.56601 3.43037H6.53801L4.87201 10.2344H2.64601L7.81287e-06 0.238374H2.19801L3.78001 7.04237H3.80801L5.54401 0.238374H7.60201L9.31001 7.12637H9.33801L10.976 0.238374H13.132L10.444 10.2344ZM16.3229 6.37037H18.9129L17.6529 2.70237H17.6249L16.3229 6.37037ZM16.5329 0.238374H18.7869L22.5249 10.2344H20.2429L19.4869 8.00837H15.7489L14.9649 10.2344H12.7529L16.5329 0.238374ZM27.3923 10.2344H24.9143L21.6803 0.238374H23.9343L26.1603 7.26637H26.1883L28.4423 0.238374H30.7103L27.3923 10.2344ZM34.1527 6.34237L30.4847 0.238374H32.9487L35.2867 4.18637L37.6107 0.238374H40.0607L36.3507 6.39837V10.2344H34.1527V6.34237ZM44.9791 0.238374H46.3091V10.2344H44.9791V0.238374ZM48.5321 0.238374H49.9461L55.2101 8.34437H55.2381V0.238374H56.4981V10.2344H55.0421L49.8201 2.21237H49.7921V10.2344H48.5321V0.238374ZM59.9796 9.11437H62.1916C62.341 9.11437 62.5276 9.10504 62.7516 9.08637C62.9756 9.05837 63.2136 9.00237 63.4656 8.91837C63.7176 8.82504 63.965 8.69437 64.2076 8.52637C64.4596 8.35837 64.6836 8.12971 64.8796 7.84037C65.0756 7.55104 65.2343 7.19171 65.3556 6.76237C65.4863 6.32371 65.5516 5.79637 65.5516 5.18037C65.5516 4.58304 65.491 4.05104 65.3696 3.58437C65.2576 3.10837 65.0663 2.70704 64.7956 2.38037C64.5343 2.04437 64.1936 1.79237 63.7736 1.62437C63.3536 1.44704 62.8356 1.35837 62.2196 1.35837H59.9796V9.11437ZM58.6496 0.238374H62.0796C63.6196 0.238374 64.805 0.630374 65.6356 1.41437C66.4663 2.19837 66.8816 3.39304 66.8816 4.99837C66.8816 5.83837 66.7883 6.58504 66.6016 7.23837C66.415 7.88237 66.1256 8.42837 65.7336 8.87637C65.3416 9.31504 64.8423 9.65104 64.2356 9.88437C63.629 10.1177 62.9103 10.2344 62.0796 10.2344H58.6496V0.238374ZM76.487 6.62237C76.487 7.90104 76.1464 8.86237 75.465 9.50637C74.7837 10.141 73.813 10.4584 72.553 10.4584C71.265 10.4584 70.257 10.155 69.529 9.54837C68.8104 8.93237 68.451 7.95704 68.451 6.62237V0.238374H69.781V6.62237C69.781 7.51837 70.019 8.19971 70.495 8.66637C70.971 9.12371 71.657 9.35237 72.553 9.35237C73.4024 9.35237 74.0464 9.12371 74.485 8.66637C74.933 8.19971 75.157 7.51837 75.157 6.62237V0.238374H76.487V6.62237ZM84.3926 3.16438C84.3179 2.44571 84.0566 1.92771 83.6086 1.61037C83.1699 1.28371 82.6052 1.12037 81.9146 1.12037C81.6346 1.12037 81.3592 1.14837 81.0886 1.20437C80.8179 1.26037 80.5752 1.35371 80.3606 1.48438C80.1552 1.61504 79.9872 1.79237 79.8566 2.01637C79.7352 2.23104 79.6746 2.50171 79.6746 2.82837C79.6746 3.13637 79.7632 3.38837 79.9406 3.58437C80.1272 3.77104 80.3699 3.92504 80.6686 4.04637C80.9766 4.16771 81.3219 4.27037 81.7046 4.35437C82.0872 4.42904 82.4746 4.51304 82.8666 4.60637C83.2679 4.69971 83.6599 4.81171 84.0426 4.94237C84.4252 5.06371 84.7659 5.23171 85.0646 5.44637C85.3726 5.66104 85.6152 5.93171 85.7926 6.25837C85.9792 6.58504 86.0726 6.99571 86.0726 7.49037C86.0726 8.02237 85.9512 8.47971 85.7086 8.86237C85.4752 9.23571 85.1719 9.54371 84.7986 9.78637C84.4252 10.0197 84.0052 10.1877 83.5386 10.2904C83.0812 10.4024 82.6239 10.4584 82.1666 10.4584C81.6066 10.4584 81.0746 10.3884 80.5706 10.2484C80.0759 10.1084 79.6372 9.89837 79.2546 9.61837C78.8812 9.32904 78.5826 8.96504 78.3586 8.52637C78.1439 8.07837 78.0366 7.55104 78.0366 6.94437H79.2966C79.2966 7.36437 79.3759 7.72837 79.5346 8.03637C79.7026 8.33504 79.9172 8.58237 80.1786 8.77837C80.4492 8.97437 80.7619 9.11904 81.1166 9.21237C81.4712 9.30571 81.8352 9.35237 82.2086 9.35237C82.5072 9.35237 82.8059 9.32437 83.1046 9.26837C83.4126 9.21237 83.6879 9.11904 83.9306 8.98837C84.1732 8.84837 84.3692 8.66171 84.5186 8.42837C84.6679 8.19504 84.7426 7.89637 84.7426 7.53237C84.7426 7.18704 84.6492 6.90704 84.4626 6.69237C84.2852 6.47771 84.0426 6.30504 83.7346 6.17437C83.4359 6.03437 83.0952 5.92237 82.7126 5.83837C82.3299 5.75437 81.9379 5.67037 81.5366 5.58637C81.1446 5.49304 80.7572 5.39037 80.3746 5.27837C79.9919 5.15704 79.6466 5.00304 79.3386 4.81637C79.0399 4.62037 78.7972 4.37304 78.6106 4.07437C78.4332 3.76637 78.3446 3.38371 78.3446 2.92637C78.3446 2.42237 78.4472 1.98837 78.6526 1.62437C78.8579 1.25104 79.1286 0.947708 79.4646 0.714375C79.8099 0.471708 80.1972 0.294374 80.6266 0.182374C81.0652 0.0610414 81.5132 0.000374913 81.9706 0.000374913C82.4839 0.000374913 82.9599 0.0610414 83.3986 0.182374C83.8372 0.303708 84.2199 0.495041 84.5466 0.756374C84.8826 1.01771 85.1439 1.34904 85.3306 1.75037C85.5266 2.14237 85.6339 2.61371 85.6526 3.16438H84.3926ZM89.9567 1.35837H86.6247V0.238374H94.6187V1.35837H91.2867V10.2344H89.9567V1.35837ZM95.7277 0.238374H100.432C101.384 0.238374 102.126 0.471708 102.658 0.938375C103.199 1.40504 103.47 2.04437 103.47 2.85637C103.47 3.46304 103.33 3.99504 103.05 4.45237C102.779 4.90971 102.34 5.22237 101.734 5.39037V5.41837C102.023 5.47437 102.256 5.56771 102.434 5.69837C102.62 5.82904 102.765 5.98771 102.868 6.17437C102.98 6.35171 103.059 6.55237 103.106 6.77637C103.162 7.00037 103.204 7.23371 103.232 7.47637C103.25 7.71904 103.264 7.96637 103.274 8.21837C103.283 8.47037 103.306 8.71771 103.344 8.96037C103.381 9.20304 103.432 9.43637 103.498 9.66037C103.572 9.87504 103.68 10.0664 103.82 10.2344H102.336C102.242 10.1317 102.177 9.99171 102.14 9.81437C102.112 9.63704 102.093 9.44104 102.084 9.22637C102.074 9.00237 102.065 8.76437 102.056 8.51237C102.046 8.26037 102.018 8.01304 101.972 7.77037C101.934 7.52771 101.888 7.29904 101.832 7.08437C101.776 6.86037 101.687 6.66904 101.566 6.51037C101.444 6.34237 101.286 6.21171 101.09 6.11838C100.894 6.01571 100.632 5.96437 100.306 5.96437H97.0577V10.2344H95.7277V0.238374ZM99.8297 4.84437C100.138 4.84437 100.432 4.82104 100.712 4.77437C100.992 4.72771 101.234 4.63904 101.44 4.50837C101.654 4.36837 101.822 4.18637 101.944 3.96237C102.074 3.72904 102.14 3.43037 102.14 3.06637C102.14 2.56237 102 2.15171 101.72 1.83437C101.44 1.51704 100.987 1.35837 100.362 1.35837H97.0577V4.84437H99.8297ZM105.368 0.238374H106.698V10.2344H105.368V0.238374ZM108.935 0.238374H115.837V1.35837H110.265V4.53637H115.459V5.65637H110.265V9.11437H115.879V10.2344H108.935V0.238374ZM123.275 3.16438C123.201 2.44571 122.939 1.92771 122.491 1.61037C122.053 1.28371 121.488 1.12037 120.797 1.12037C120.517 1.12037 120.242 1.14837 119.971 1.20437C119.701 1.26037 119.458 1.35371 119.243 1.48438C119.038 1.61504 118.87 1.79237 118.739 2.01637C118.618 2.23104 118.557 2.50171 118.557 2.82837C118.557 3.13637 118.646 3.38837 118.823 3.58437C119.01 3.77104 119.253 3.92504 119.551 4.04637C119.859 4.16771 120.205 4.27037 120.587 4.35437C120.97 4.42904 121.357 4.51304 121.749 4.60637C122.151 4.69971 122.543 4.81171 122.925 4.94237C123.308 5.06371 123.649 5.23171 123.947 5.44637C124.255 5.66104 124.498 5.93171 124.675 6.25837C124.862 6.58504 124.955 6.99571 124.955 7.49037C124.955 8.02237 124.834 8.47971 124.591 8.86237C124.358 9.23571 124.055 9.54371 123.681 9.78637C123.308 10.0197 122.888 10.1877 122.421 10.2904C121.964 10.4024 121.507 10.4584 121.049 10.4584C120.489 10.4584 119.957 10.3884 119.453 10.2484C118.959 10.1084 118.52 9.89837 118.137 9.61837C117.764 9.32904 117.465 8.96504 117.241 8.52637C117.027 8.07837 116.919 7.55104 116.919 6.94437H118.179C118.179 7.36437 118.259 7.72837 118.417 8.03637C118.585 8.33504 118.8 8.58237 119.061 8.77837C119.332 8.97437 119.645 9.11904 119.999 9.21237C120.354 9.30571 120.718 9.35237 121.091 9.35237C121.39 9.35237 121.689 9.32437 121.987 9.26837C122.295 9.21237 122.571 9.11904 122.813 8.98837C123.056 8.84837 123.252 8.66171 123.401 8.42837C123.551 8.19504 123.625 7.89637 123.625 7.53237C123.625 7.18704 123.532 6.90704 123.345 6.69237C123.168 6.47771 122.925 6.30504 122.617 6.17437C122.319 6.03437 121.978 5.92237 121.595 5.83837C121.213 5.75437 120.821 5.67037 120.419 5.58637C120.027 5.49304 119.64 5.39037 119.257 5.27837C118.875 5.15704 118.529 5.00304 118.221 4.81637C117.923 4.62037 117.68 4.37304 117.493 4.07437C117.316 3.76637 117.227 3.38371 117.227 2.92637C117.227 2.42237 117.33 1.98837 117.535 1.62437C117.741 1.25104 118.011 0.947708 118.347 0.714375C118.693 0.471708 119.08 0.294374 119.509 0.182374C119.948 0.0610414 120.396 0.000374913 120.853 0.000374913C121.367 0.000374913 121.843 0.0610414 122.281 0.182374C122.72 0.303708 123.103 0.495041 123.429 0.756374C123.765 1.01771 124.027 1.34904 124.213 1.75037C124.409 2.14237 124.517 2.61371 124.535 3.16438H123.275Z" fill="black"/>
</svg>
